<svg xmlns="http://www.w3.org/2000/svg" version="1.1" xmlns:xlink="http://www.w3.org/1999/xlink" xmlns:svgjs="http://svgjs.com/svgjs" width="512" height="512" x="0" y="0" viewBox="0 0 512 512" style="enable-background:new 0 0 512 512" xml:space="preserve" class=""><g><g xmlns="http://www.w3.org/2000/svg"><path d="m492 326.243c11.046 0 20-8.954 20-20v-183.005c0-44.112-35.888-80-80-80h-30.363c-1.132-9.972-9.597-17.719-19.871-17.719s-18.739 7.747-19.871 17.719h-86.024c-1.132-9.972-9.597-17.719-19.871-17.719s-18.739 7.747-19.871 17.719h-86.024c-1.132-9.972-9.597-17.719-19.871-17.719s-18.739 7.747-19.871 17.719h-30.363c-44.112 0-80 35.888-80 80v283.243c0 44.112 35.888 80 80 80h352c44.112 0 80-35.888 80-80v-.153c0-11.046-8.954-20-20-20s-20 8.954-20 20v.153c0 22.056-17.944 40-40 40h-352c-22.056 0-40-17.944-40-40v-283.243c0-22.056 17.944-40 40-40h30.234v40.238h-12.021c-11.046 0-20 8.954-20 20s8.954 20 20 20h315.574c11.046 0 20-8.954 20-20s-8.954-20-20-20h-12.021v-40.238h30.234c22.056 0 40 17.944 40 40v183.004c0 11.047 8.954 20.001 20 20.001zm-341.766-243.005h85.766v40.238h-85.766zm211.532 40.239h-85.766v-40.239h85.766z" fill="#000000" data-original="#000000" class=""></path><path d="m162.459 230.296h-27.243c-11.046 0-20 8.954-20 20s8.954 20 20 20h27.243c11.046 0 20-8.954 20-20s-8.954-20-20-20z" fill="#000000" data-original="#000000" class=""></path><path d="m269.622 230.296h-27.243c-11.046 0-20 8.954-20 20s8.954 20 20 20h27.243c11.046 0 20-8.954 20-20s-8.955-20-20-20z" fill="#000000" data-original="#000000" class=""></path><path d="m376.784 230.296h-27.243c-11.046 0-20 8.954-20 20s8.954 20 20 20h27.243c11.046 0 20-8.954 20-20s-8.954-20-20-20z" fill="#000000" data-original="#000000" class=""></path><path d="m162.459 331.423h-27.243c-11.046 0-20 8.954-20 20s8.954 20 20 20h27.243c11.046 0 20-8.954 20-20s-8.954-20-20-20z" fill="#000000" data-original="#000000" class=""></path><path d="m269.622 331.423h-27.243c-11.046 0-20 8.954-20 20s8.954 20 20 20h27.243c11.046 0 20-8.954 20-20s-8.955-20-20-20z" fill="#000000" data-original="#000000" class=""></path><path d="m376.784 331.423h-27.243c-11.046 0-20 8.954-20 20s8.954 20 20 20h27.243c11.046 0 20-8.954 20-20s-8.954-20-20-20z" fill="#000000" data-original="#000000" class=""></path></g></g></svg>