<svg xmlns="http://www.w3.org/2000/svg" version="1.1" xmlns:xlink="http://www.w3.org/1999/xlink" xmlns:svgjs="http://svgjs.com/svgjs" width="512" height="512" x="0" y="0" viewBox="0 0 512 512" style="enable-background:new 0 0 512 512" xml:space="preserve" class=""><g><path xmlns="http://www.w3.org/2000/svg" d="m471.558594 36.511719c-23.96875-23.886719-57.703125-36.511719-97.558594-36.511719-43.554688 0-81.1875 18.542969-108.832031 53.621094-3.207031 4.070312-6.101563 8.144531-8.703125 12.125-2.496094-3.929688-5.28125-7.949219-8.378906-11.964844-27.15625-35.183594-65.222657-53.78125-110.085938-53.78125-39.855469 0-73.589844 12.625-97.558594 36.511719-26.835937 26.746093-40.441406 65.828125-40.441406 116.15625 0 48.855469 28.574219 107.472656 84.933594 174.222656 42.976562 50.90625 95.484375 98.003906 130.292968 125.105469 12.003907 9.347656 26.386719 14.019531 40.773438 14.019531 14.382812 0 28.773438-4.671875 40.773438-14.019531 11.582031-9.019532 35.339843-28.242188 64.300781-55.679688 8.019531-7.59375 8.359375-20.253906.765625-28.273437-7.597656-8.019531-20.253906-8.359375-28.273438-.765625-27.738281 26.277344-50.355468 44.582031-61.367187 53.15625-9.539063 7.429687-22.859375 7.429687-32.398438 0-33.214843-25.859375-83.3125-70.792969-124.304687-119.34375-49.390625-58.5-75.496094-109.820313-75.496094-148.421875 0-93.121094 53.292969-112.667969 98-112.667969 76.894531 0 97.78125 73.855469 98.667969 77.121094.023437.097656.0625.1875.089843.285156.128907.457031.273438.90625.433594 1.351562.066406.1875.132813.375.207032.558594.167968.429688.351562.851563.546874 1.269532.085938.175781.167969.355468.257813.527343.21875.425781.449219.835938.695313 1.246094.085937.136719.167968.277344.253906.414063.285156.453124.59375.886718.917968 1.316406.050782.066406.097657.136718.148438.199218 2.484375 3.210938 5.949219 5.707032 10.136719 6.9375 9.003906 2.640626 18.355469-1.332031 22.878906-9.082031.007813-.015625.019531-.035156.03125-.054687.269531-.46875.519531-.945313.753906-1.441406.074219-.152344.144531-.304688.214844-.457032.164063-.367187.316406-.742187.457031-1.125.121094-.308594.226563-.621094.328125-.9375.046875-.144531.105469-.28125.148438-.425781.0625-.203125 6.328125-20.585937 22.195312-40.304687 19.96875-24.816407 45.753907-37.398438 76.636719-37.398438 44.707031 0 98 19.546875 98 112.667969 0 37.304687-24.359375 85.609375-72.398438 143.570312-7.046874 8.503907-5.867187 21.109375 2.636719 28.160157 3.730469 3.09375 8.253907 4.601562 12.75 4.601562 5.75 0 11.457031-2.464844 15.410157-7.238281 54.910156-66.246094 81.601562-121.558594 81.601562-169.09375 0-50.328125-13.605469-89.410157-40.441406-116.15625zm0 0" fill="#000000" data-original="#000000"></path></g></svg>