<svg xmlns="http://www.w3.org/2000/svg" version="1.1" xmlns:xlink="http://www.w3.org/1999/xlink" xmlns:svgjs="http://svgjs.com/svgjs" width="512" height="512" x="0" y="0" viewBox="0 0 511.99 511.99" style="enable-background:new 0 0 512 512" xml:space="preserve" class=""><g>
<g xmlns="http://www.w3.org/2000/svg">
	<g>
		<g>
			<path d="M510.925,255.995c0,3.882-0.123,7.722-0.297,11.563c2.141-19.081,1.905-37.864-1.751-57.037     c-1.536-5.623-3.062-11.246-4.599-16.858c0.512-2.55-1.024-7.149-3.574-13.284c-2.55-7.661-4.599-15.844-8.173-23.505     c-9.197-20.945-20.945-40.875-35.252-58.757c-13.796-16.858-29.128-32.19-46.498-44.962c-0.707-0.574-1.465-1.034-2.182-1.598     C470.715,98.179,510.925,172.422,510.925,255.995z" fill="#000000" data-original="#000000" class=""></path>
			<path d="M186.084,21.328c-0.203,0.065-0.405,0.131-0.604,0.231C185.624,21.559,185.835,21.471,186.084,21.328z" fill="#000000" data-original="#000000" class=""></path>
			<path d="M497.129,256.507c-0.512,0.512-0.512,1.536-0.512,2.048C497.641,258.043,497.641,257.531,497.129,256.507z" fill="#000000" data-original="#000000" class=""></path>
			<path d="M222.76,257.531c0.141-0.132,0.111-0.178,0.113-0.24c0.001-0.006-0.001-0.011,0-0.016     c-0.009-0.06-0.071-0.149-0.095-0.215c-0.008-0.005-0.017-0.01-0.017-0.01C222.76,257.523,222.76,257.531,222.76,257.531z" fill="#000000" data-original="#000000" class=""></path>
			<path d="M495.603,285.123c0,2.048,0,7.149,1.024,8.685c0.502-7.159,0-14.82-0.512-22.481     C495.603,275.414,495.603,281.036,495.603,285.123z" fill="#000000" data-original="#000000" class=""></path>
			<path d="M214.597,65.958c-0.018-0.018-0.018-0.048-0.025-0.073C214.558,65.901,214.565,65.925,214.597,65.958z" fill="#000000" data-original="#000000" class=""></path>
			<path d="M500.201,193.141c-1.024-4.599-2.55-9.197-3.574-13.284c-6.647-17.37-22.481-43.938-23.505-43.425     c-1.536,1.024,11.747,20.945,12.772,23.505c0.512,1.536,0.512,1.024,0,0.512c5.111,11.235,10.221,22.481,14.308,33.716     C500.201,193.653,500.201,193.653,500.201,193.141z" fill="#000000" data-original="#000000" class=""></path>
			<path d="M141.532,105.788c0,0.184,0,0.246,0,0.318C141.634,105.819,141.675,105.635,141.532,105.788z" fill="#000000" data-original="#000000" class=""></path>
			<path d="M222.258,72.062c1.024-1.024-0.512,0-1.024,0C220.722,73.086,221.746,72.574,222.258,72.062z" fill="#000000" data-original="#000000" class=""></path>
			<path d="M190.068,80.235c-0.512-1.024-1.024-1.024-2.048-0.512C187.508,80.235,189.044,79.723,190.068,80.235z" fill="#000000" data-original="#000000" class=""></path>
			<path d="M364.99,39.206c-0.065-0.115-0.131-0.219-0.196-0.348C364.741,38.858,364.818,38.987,364.99,39.206z" fill="#000000" data-original="#000000" class=""></path>
			<path d="M392.539,40.507c-3.385-2.159-6.829-4.234-10.319-6.236c0.848,0.503,1.693,1.008,2.505,1.514     C387.408,37.27,389.948,38.919,392.539,40.507z" fill="#000000" data-original="#000000" class=""></path>
			<path d="M377.25,31.486c1.669,0.908,3.323,1.84,4.969,2.785C380.611,33.316,378.949,32.385,377.25,31.486z" fill="#000000" data-original="#000000" class=""></path>
			<path d="M392.539,40.507c5.09,3.247,10.078,6.626,14.912,10.211C402.658,47.031,397.681,43.651,392.539,40.507z" fill="#000000" data-original="#000000" class=""></path>
			<path d="M208.462,56.228c1.536-0.512,3.062-0.512,4.599-2.048C211.013,55.204,209.476,54.692,208.462,56.228z" fill="#000000" data-original="#000000" class=""></path>
			<path d="M499.177,246.286c-0.512,1.536-1.024,3.073-0.512,4.086C498.665,249.348,499.689,248.324,499.177,246.286z" fill="#000000" data-original="#000000" class=""></path>
			<path d="M498.665,297.884c0.512,6.647-2.038,12.782-2.55,19.931c2.55-3.062,3.062-14.308,3.062-18.394     C499.177,298.908,499.177,298.396,498.665,297.884z" fill="#000000" data-original="#000000" class=""></path>
			<path d="M490.492,324.974c0.512,0,1.024-0.512,1.536-0.512c0,0,0-0.512,0.512-1.024     C492.028,323.438,489.468,324.974,490.492,324.974z" fill="#000000" data-original="#000000" class=""></path>
			<path d="M502.752,258.043c0.512-1.536,0-2.55-0.512-3.574c-3.574,2.038-2.55,9.187-2.55,12.772     C502.752,264.178,501.738,262.642,502.752,258.043z" fill="#000000" data-original="#000000" class=""></path>
			<path d="M495.593,293.808c-2.55,1.526-2.55,1.526-2.55,4.086C493.554,296.358,495.091,295.344,495.593,293.808z" fill="#000000" data-original="#000000" class=""></path>
			<path d="M66.418,264.68C65.906,263.656,66.418,265.192,66.418,264.68L66.418,264.68z" fill="#000000" data-original="#000000" class=""></path>
			<path d="M147.134,100.719c0.013-0.005,0.03-0.013,0.043-0.019C147.168,100.695,147.155,100.698,147.134,100.719z" fill="#000000" data-original="#000000" class=""></path>
			<path d="M84.301,208.995c-0.43,0.43-0.481,1.792-0.492,2.571c1.014,1.004,2.028,1.516,3.042,1.516     C87.885,212.058,85.325,207.971,84.301,208.995z" fill="#000000" data-original="#000000" class=""></path>
			<path d="M77.664,194.175C76.64,194.687,79.19,194.175,77.664,194.175L77.664,194.175z" fill="#000000" data-original="#000000" class=""></path>
			<path d="M83.768,212.047c0.01,0,0.01,0.01,0.021,0.01c0-0.082,0.021-0.348,0.021-0.492c-0.01-0.01-0.01-0.01-0.021-0.021     C83.789,211.607,83.778,211.791,83.768,212.047z" fill="#000000" data-original="#000000" class=""></path>
			<path d="M149.193,218.192C150.719,218.192,148.169,217.68,149.193,218.192L149.193,218.192z" fill="#000000" data-original="#000000" class=""></path>
			<path d="M123.138,63.889c1.536-0.512,8.685-8.173,7.149-9.709c-0.512-1.024-5.623,1.536-6.135,2.048     c-1.803,0.451,1.014,1.598,1.383,1.178c-0.195-0.399-0.133-0.789,0.655-1.178c0.983,0,0.942,0.502-0.41,1.444     c0.43,1.239-1.209,3.759-2.13,4.681C123.65,62.865,123.138,63.377,123.138,63.889z" fill="#000000" data-original="#000000" class=""></path>
			<path d="M160.94,428.181C161.965,426.645,158.902,428.181,160.94,428.181L160.94,428.181z" fill="#000000" data-original="#000000" class=""></path>
			<path d="M121.089,62.353c-0.512,0.512-0.512,1.024-1.536,2.048C121.089,64.401,121.601,63.889,121.089,62.353z" fill="#000000" data-original="#000000" class=""></path>
			<path d="M128.238,48.045c-0.512,0-1.024,0.512-1.536,1.024C127.224,49.069,127.736,49.069,128.238,48.045z" fill="#000000" data-original="#000000" class=""></path>
			<path d="M129.774,74.11c-1.536,1.024,7.149,2.048,6.647,1.536c2.55,1.024,3.062-3.062,2.048-4.599     c-3.062-4.086-5.111-1.024-10.221,0.512c-2.048,0.512-3.574,2.048-5.623,3.062C124.152,76.148,127.736,75.124,129.774,74.11z" fill="#000000" data-original="#000000" class=""></path>
			<path d="M125.688,57.754c0.061-0.041,0.041-0.051,0.102-0.092c-0.041-0.133,0-0.318-0.102-0.42     c0.061,0.123-0.092,0.113-0.143,0.164C125.606,57.518,125.575,57.641,125.688,57.754z" fill="#000000" data-original="#000000" class=""></path>
			<path d="M372.663,35.339c-0.111-0.037-0.197-0.066-0.197-0.066C372.54,35.298,372.602,35.319,372.663,35.339z" fill="#000000" data-original="#000000" class=""></path>
			<path d="M372.663,35.339c0.018,0.006,0.037,0.012,0.056,0.019C372.702,35.352,372.68,35.345,372.663,35.339z" fill="#000000" data-original="#000000" class=""></path>
			<path d="M199.435,53.421c0.122-0.077,0.239-0.162,0.343-0.266C199.629,53.255,199.522,53.341,199.435,53.421z" fill="#000000" data-original="#000000" class=""></path>
			<path d="M494.015,332.604c-4.086,8.685-7.149,17.882-11.235,26.567c-1.536,3.574-5.111,5.623-6.647,9.197     c-1.526,3.585-3.574,7.671-6.637,10.733c-5.613,5.623-9.197,14.308-16.346,18.394c-3.574,2.048-8.685,1.536-11.747,4.599     c-2.038-4.599,3.062-11.246,4.599-15.332c1.536-7.149,1.024-13.786,4.086-20.432c5.111-12.772-0.512-27.079,5.111-39.339     c2.048-5.111,4.097-9.197,6.647-13.796c2.56-4.087,1.536-11.747,2.048-16.858c1.024-6.125-1.536-15.322-4.086-20.945     c-1.024-2.048-7.661-11.246-5.111-13.796c4.086-3.062,2.55-20.443-2.048-22.993c-2.55-1.024-6.637,3.574-8.685,0     c-1.536-2.55-1.536-6.125-4.599-7.661c-4.086-2.048-18.384,8.173-20.432,7.661c-3.585-1.536-7.159-2.048-10.733-1.024     c-4.097,1.024-6.647,4.599-10.733,2.048c-2.56-1.024-4.086-3.062-6.135-5.111c-5.111-4.086-11.747-6.647-13.284-13.796     c-1.536-5.623-9.197-6.637-9.709-12.772c-5.111,4.086-4.599-6.125-5.111-7.661c-3.062-5.623-2.048-7.149-0.512-13.284     c2.55-11.758-11.246-21.969-1.024-32.19c2.048-2.038-1.014-6.125,2.048-7.661c1.536-1.024,1.536-2.55,1.536-4.086     c0-3.062,6.637-4.599,8.173-7.661c1.536-4.599-2.048-8.173-0.512-13.284c0.512-2.56,3.574-2.56,4.599-5.111     c0.512-1.536-0.512-6.135,1.024-6.647c3.062-1.024,10.221,6.135,13.284,0.512c2.048-3.062,6.647-4.086,10.221-5.111     c2.048-0.512,13.284-2.048,14.308-1.024c1.536,1.536,7.159,5.111,6.135,9.197c-1.536,4.588,9.197,5.612,11.747,6.637     c3.062,1.024,4.087,5.111,7.661,5.111c2.56,0,3.574,2.038,5.623,3.062c3.585,2.038-4.086-13.796,1.536-9.709     c3.574,2.56,8.685,5.111,13.284,6.135c0-1.014,0.512-1.526,1.024-2.55c3.073-1.024,5.111,3.073,1.536-3.574     c-1.024-1.526-8.685-16.858-10.733-15.834c-1.024,0.512,0.512,1.536,0,2.048c-1.024,0.502-3.062-3.073-3.574-2.048     c0,0,0.512,1.536,0.512,2.048c-1.024,1.024-13.796-11.235-14.308-13.284c0.512,0,1.536-0.512,2.048-0.512     c0-1.024-0.512-1.536-1.024-2.048c0.512-0.512,1.024-0.512,1.536-0.512c-0.512-1.014-0.512-2.038,0-3.062     c1.014-1.024,5.1,3.062,6.637,3.062c-1.024-5.111-10.221-11.747-14.308-13.796c-0.512,0.512,0,1.536,0,2.048     c-1.024-1.536-3.574-1.536-4.086-4.087c1.024,1.024,2.038,1.536,3.574,1.536c1.024-1.024-4.086-5.111-4.599-5.623     c0,1.014,0,2.038,0.512,3.062c-1.526,1.024-2.55-1.024-3.574-1.024c2.037,6.1,9.115,14.717,14.219,17.825     c-0.478,0.04-2.833,2.106-1.448,2.106c-2.55,0-3.062,1.024-4.086,1.024c0,3.073,5.613,4.599,7.149,6.647     c1.014,1.536,1.526,4.087,2.55,6.135c-2.038-0.512-7.149-5.111-7.149-5.111c-1.536,0-7.661-7.149-8.685-8.685     c-3.062-3.585-4.087-4.599-7.661-6.647c-5.111-2.56-10.221-7.661-14.82-9.197c-3.062-1.024,1.536,4.599,1.536,4.599     c2.55,2.048,5.623,3.574,8.173,5.623c4.086,3.062,10.221,3.574,13.796,8.173c-1.024-1.024-2.038-1.024-3.574-1.536     c0,2.038,3.574,4.599,4.086,7.661c0,0.512,1.024,4.599,1.024,5.111c-1.014,0-7.661-3.062-7.149-4.086     c0.512-1.024,7.661,0.512,4.599-3.574c-2.56-3.062-5.623-5.1-9.197-7.149c-5.623-3.073-12.259-8.685-18.394-10.733     c1.536,7.661-9.709,2.048-8.685,5.111c0,1.024,5.111,4.599,1.024,5.623c-2.56,0.512-1.536,2.55-2.048,4.599     c0,1.024,5.111,8.173,1.024,9.197c-3.574,1.014,2.55,2.55-4.599,2.55c-3.073,0-4.086,3.585-6.135,2.048     c-3.574-2.55-3.574-2.038-7.661-2.55c-2.038-0.502-2.038-0.502-2.55-2.55c-1.024-2.56-4.086-2.56-3.574-5.623     c0-4.086-2.55-5.623-3.574-9.197c0-0.512-4.599-5.623,0-5.111c2.048,0,14.82,2.56,15.844,0.512     c4.086-6.135-14.308-14.82-17.37-15.844c2.048-1.024,4.097-0.512,6.647-0.512c-0.512-1.526-1.536-2.038-2.048-2.55     c0,0,8.173,1.024,4.599-3.062c0,0,1.024-7.149,1.024-6.637c0-2.038,5.111-2.55,3.062-3.574c-4.599-2.55-6.637-4.599-7.661-8.685     c3.062,2.048,7.661,9.197,11.747,9.197c1.536,0,5.111,0,5.623-1.024c2.55-3.062,1.024,0,4.599-0.512     c-0.512-3.574-6.637-5.623-7.149-8.173c1.014,0,1.526,1.024,3.062,1.024c0-0.512-11.245-6.647-5.623-5.623     c2.038-2.56-4.086-4.599-5.623-5.111c1.014,1.014,2.038,1.526,3.062,2.55c-7.671,6.125-16.356-9.709-24.017-10.221     c0.512,2.038,6.637,6.125,8.173,7.661c3.073,2.56,7.671,3.073,10.733,5.623c3.073,3.073,5.111,6.647,6.647,9.709     c-1.37,2.289-10.562-6.933-12.064-8.849c0.447,0.787,0.894,1.309,1.341,2.202c-1.536,1.014-3.062-2.56-4.599-2.048     c-2.55,1.536,2.048,4.097-4.086,2.048c-4.086-1.536-11.235-6.135-11.747-10.221c-0.512-2.038-9.709-13.284-10.733-12.259     c3.062-4.087,17.882,1.536,21.969,4.086c0,0.512-0.512,0-0.512,0.512s7.159,3.574,9.709,4.086     c-0.512-0.512-4.599-2.55-4.599-3.574c1.024,1.536,8.173,3.574,9.709,4.599c1.952,0.865,3.896,1.837,5.809,2.85     C341.04,11.775,299.57,0.533,255.462,0.533C114.453,0.533,0,114.975,0,255.995s114.453,255.462,255.462,255.462     c137.138,0,249.123-108.246,255.176-243.899c-0.256,2.274-0.399,4.547-0.779,6.801     C503.212,294.791,502.188,313.186,494.015,332.604z M455.229,108.851c1.024,0.502,1.536,1.526,1.536,2.55     C455.24,110.889,454.728,109.875,455.229,108.851z M448.081,110.387c-1.024,0.512-1.536,1.024-1.536,0.512     c-1.014-1.024-2.55,0-3.062-2.048C445.018,109.363,446.555,109.363,448.081,110.387z M409.254,97.615     c-1.536,2.55-4.599-4.086-6.647-5.111c1.024-0.512,1.536-1.024,2.048-1.536C406.192,90.968,409.766,96.591,409.254,97.615z      M400.569,85.858c1.014-1.024,3.062,3.574,3.062,4.086C403.119,89.432,399.032,86.882,400.569,85.858z M394.956,97.615     c-0.512,0-1.024,0-1.536-0.512C390.859,96.591,396.994,95.055,394.956,97.615z M332.102,42.422     c0.512,0.512,1.024,0.512,0.512,1.536c0,0,0.512,0.512,0.512,1.024C332.614,44.982,331.078,42.432,332.102,42.422z M301.96,8.204     c0.913,0-1.017,0.406-1.085,0.494c-3.049-1.004-6.606-1.013-9.648-2.031C294.801,6.156,299.4,7.682,301.96,8.204z      M294.289,26.588c1.536-0.512,14.82,1.014,10.221,3.062c-3.574,1.536-8.685,3.574-11.747,0.512     c-1.024-0.502-5.111-2.55-5.623-2.55C287.14,26.076,293.275,26.588,294.289,26.588z M215.13,8.726     c6.125-3.574,18.384-4.086,25.031-3.574c7.661,1.024,15.332-1.536,22.481,0c3.062,0,5.623,0.512,8.685,0.512     c2.55,0.512-0.512,3.062,2.55,3.574c1.526,0,5.1,4.087,6.637,3.574c0,2.55-1.536,1.024-0.512,3.574     c0,0.502,3.574,2.55,3.062,2.55c-0.512,0.512-8.685,0-8.173,0c-0.512,0,0,1.536,0.512,1.024c1.526,0.512,5.1,0,7.149,0     c-4.097,4.097-10.733,3.585-15.332,6.647c-3.073,2.038-7.159,1.526-10.221,3.062c0,3.073-2.55,7.159-4.599,10.733     c-1.536,1.024-12.26-4.086-13.284-5.623c-2.56-2.55-7.671-10.211-2.048-12.26c7.149-2.56,0-0.512-2.048-2.048     c1.536-2.56,3.585-1.536,6.135-1.024c-1.536-2.048-3.062-2.56-5.111-1.536c-0.512-2.048,3.062-4.086,0-6.135     c-1.024-1.024-8.685,0-8.685-1.024c-0.502-3.062,9.197-1.536,10.733-4.086c-7.149-1.536-14.82,5.623-21.457,4.599     c-1.536,0-2.55,0-4.087,0C212.549,9.73,217.148,9.73,215.13,8.726z M214.597,11.768c-1.536,1.536-4.599,1.536-8.685,1.024     c1.526,0-1.024-1.024-2.048-0.512C208.462,9.218,209.476,11.266,214.597,11.768z M203.864,10.744c0,0-1.526,3.073-2.55,2.048     c-0.512-0.512-1.024,0-1.536-0.512C200.791,10.242,202.328,10.754,203.864,10.744z M194.144,15.353     c2.048-1.536,4.086-1.536,6.135-1.536C198.241,14.841,196.705,15.353,194.144,15.353z M194.667,15.353     c-0.512,0.512-0.512,0.512-1.024,0.512C193.643,15.353,194.155,15.353,194.667,15.353z M197.739,11.256     c-1.536,1.024-1.024,0.512-0.512,0c-2.048,1.024-4.086,0.512-6.135,1.024C194.155,10.242,195.179,10.242,197.739,11.256z      M64.882,265.704c-0.512-0.512-0.512-4.086,0-4.599c0.512,1.024,1.024,2.55,1.536,3.574     C66.418,265.704,65.906,266.217,64.882,265.704z M68.467,264.168C67.955,266.729,67.443,262.13,68.467,264.168L68.467,264.168z      M166.071,450.662c-1.536-2.048,2.55-4.599-1.536-5.623c-2.56-0.512-1.536,1.014-1.536-2.048     c-0.512-5.111-3.062-6.135,1.024-5.111c-0.512,0,0.512-10.723-3.574-8.173c3.574,3.574-0.512,5.111-0.512,4.086     c0-4.086-5.111-16.858-6.135-17.882c-0.512-1.024,0.512-3.062,0.512-4.599c-0.512-4.087-0.512-8.685,0-12.772     c0-2.55-2.038-5.613-3.062-7.661c-1.024-2.048,1.024-3.062-0.512-5.111c-2.56-3.062,0.512-9.197-1.024-12.772     c-2.56-5.111-1.536-12.259-2.048-17.882c0-9.187-5.623-16.346-13.284-20.432c-9.709-5.111-15.332-11.235-19.419-21.457     c-2.048-7.159-9.709-18.906-15.332-24.017c-3.585-2.56,2.55-15.332,2.55-15.332c-3.574-2.55-4.086-3.062-2.55-8.173     c0.512-2.038,2.048-4.588,1.536-6.637c0-0.512,3.574-2.55,4.086-4.087c0.512-2.56,8.173-8.173,5.623-10.221     c-2.048-2.55,1.536-9.197,0-12.259c-1.024-2.048-3.073-10.221-6.135-10.221c-4.086,0.512-3.574,8.685-5.623,7.661     c-2.55-1.024-4.599-5.111-7.661-6.135c-2.048-0.512-2.048-5.111-5.08-6.545c0,0.512,0,1.024-0.512,1.536     c-2.243,1.342-2.12-4.803-2.059-6.657c-3.554-1.045-3.052-7.149-4.076-8.675c-1.526-1.536-9.699-1.024-11.747-4.599     c-1.536-2.55-2.56-7.661-5.623-8.685c-3.574-0.512-4.086,3.073-7.661,1.024c-1.536-1.024-10.733-8.685-10.733-10.733     c0-3.062-4.599-7.159-1.024-9.709c0-0.512,1.024-4.599,1.536-5.111c2.048-7.661-2.038-16.356,1.024-23.505     c1.014-1.526,3.574-15.834,3.062-16.346c-3.585-1.536-8.173,33.204-10.221,34.74c1.526-7.661,0-15.322,3.574-21.457     c2.55-2.56,3.062-7.671,4.087-10.733c1.536-4.086,4.599-8.173,4.086-12.772c0-6.135,25.041-35.775,32.19-42.411     c12.772-12.782,25.031-23.505,40.363-33.214c9.197-5.623,18.906-10.733,28.616-15.332c4.087-2.048,8.685-3.574,13.284-5.111     c2.55,2.038-0.512,2.038-1.536,3.062c2.048,1.024,4.086,0.512,5.623-1.024c-1.024-3.062,12.772-8.685,17.37-8.685     c-1.014,1.024-2.038,1.024-2.55,1.536c1.014,1.024,2.038,0,3.062,0c-1.536,2.038-15.332,7.661-15.332,7.661     c1.024,2.56,8.685-2.55,10.733-2.55c-0.512,2.038-3.062,1.526-4.086,2.55c4.875,0.881,7.067-4.742,11.553-5.592     c-0.553,0.072-1.147,0.082-1.844-0.031c2.038-1.526,4.588-2.038,6.637-2.55c-1.495,1.127-2.724,2.233-4.476,2.55     c0.594-0.082,1.219-0.102,1.915,0.01c-0.88,0.88-4.013,4.011-5.53,4.88c0.837-0.267,1.733-0.281,2.97-0.281     c-0.512,1.526-3.062,1.014-3.574,3.062c3.062-1.536,6.647-2.048,9.709-4.599c-0.512-0.512-0.512-1.024-1.024-1.536     c2.56-2.038,6.135-3.574,9.709-4.086c-2.048,1.526-3.574,2.038-4.599,3.574c3.062-1.014,5.111-3.062,8.685-2.55     c0,1.024-1.024,1.024-1.536,2.048c1.536,0,2.55,0,4.086-1.024c-0.512-0.512-1.024,0-1.536-0.512     c1.024-0.512,2.55-1.024,3.574-0.512c-1.024,3.574,2.048,3.062,4.599,4.599c2.038,1.526-3.585,2.038-2.048,3.062     c1.536,1.526,4.599,1.526,6.135,3.062c-0.502,1.014-5.613,3.574-6.637,3.062c-0.512,0-5.623-5.111-4.599-0.512     c1.526,5.111,1.526,6.637-5.623,3.062c0,0.512,2.56,3.062,2.048,3.574c-0.512,1.014-7.661-1.024-7.661-2.048     c-1.536-4.086-7.661-1.526-8.173-3.062c0,0.512,22.481-5.111,13.284-10.221c-1.536-1.024-9.197,1.526-10.221,3.574     c-1.024,2.038-3.585,2.55-6.135,3.062c-0.453,0-3.694,0-4.086,0c-1.014,1.024,1.024,4.599,1.536,5.111     c-2.048,1.536-7.661,0.512-9.709,0.512c1.014-1.024,2.55-0.512,3.062-2.048c-2.56-1.536-16.356,5.1-18.906,6.637     c-7.159,3.585-7.159,5.623-10.733,10.221c1.024,1.014,5.623-1.024,5.111,2.55c0,2.038,6.637,3.062,7.149,3.062     c-1.526,1.536-2.55,3.062-3.574,4.599c0.512,0.512,2.048,0,2.048,1.024c-0.502,1.024-1.526,0.512-2.55-0.512     c-1.536,2.55-0.512,5.623,2.55,4.599c3.073-1.536,3.574-3.585,5.623-6.135c3.062-4.599,9.709-4.086,12.259-9.197     c1.536-3.062-2.55-2.56,2.048-5.111c2.048-1.024,4.086-4.086,5.623-6.135c3.062-4.086,10.221,2.038,12.772,3.062     c-6.647,9.197,5.623,3.574,9.197,1.024c1.024,8.173,2.55,11.246,9.197,14.308c-0.512,1.024-1.024,0.512-1.536,1.024     c1.024,0,5.623,2.038,4.599,3.574c-0.891,1.782-1.915,2.673-3.062,3.236c0.563-0.297,1.311-0.42,2.55-0.174     c-0.494,0.494-4.303,3.831-4.111,4.525c0.209-0.246,5.135,1.13,5.135,1.61c4.599-1.536,1.536,2.038,4.086,2.55     c0,0.512,0,9.197-3.574,5.111c0.512-0.512,0.512-1.024,0.512-1.536c-1.536-0.512-5.111,1.536-6.135,1.536     c0-1.024,1.536-0.512,1.536-1.536c-1.536-1.024-10.733-0.512-10.733-1.024c0-0.502,1.024-1.526,2.048-2.55     c2.304-2.304,5.715-5.715,6.77-6.77c0.246-0.123,0.635-0.379,0.379-0.379c0.481-0.481,0.86-0.953,1.383-1.27     c-2.1,0.963-4.599,0.86-7.518,2.806c-5.111,3.585-13.796,1.024-19.931,1.536c-5.613,0.512-11.747,6.647-16.858,9.709     c6.135,0,11.246-8.173,18.906-6.637c4.599,1.014-4.086,3.062-5.111,3.062c1.014,1.024,2.038,1.536,3.062,1.024     c1.536,2.038-3.062,6.637,4.599,6.637c4.086,0,4.086-4.086,7.149-4.086l1.024,2.55c-1.536,3.574-14.82,5.623-18.906,8.173     c-3.574,2.048,1.536-5.613,4.599-6.637c0,0,0,0,0-0.512c-5.623,2.048-11.747,5.111-17.37,6.135     c-3.574,0.502-5.623,4.086-5.111,7.149c-3.073,1.536-6.647,1.024-9.709,2.048c1.014,0.512,1.526,0,2.55,0.512     c-3.057,2.038-7.62,4.57-10.178,5.604c0.222,0.117-2.614,7.043-3.105,4.105c-0.512-1.536-0.512-4.086,1.536-4.599     c-3.062,0-1.536,5.111-4.599,3.574c0,0.502,3.062,3.062,0.512,2.55c0,0,0-0.061,0-0.195c-0.266,0.707-1.024,2.233-1.024,2.233     c0,0.502,1.536,1.014,1.024,2.55c-0.502,1.536-2.55,0.512-2.55,2.048c1.024-1.024,1.536,0,1.536,1.024     c-1.024,1.536-4.599,3.062-6.135,4.086c-4.599,2.55-9.197,5.623-13.284,9.197c-5.623,4.599-6.637,27.079-8.685,27.079     c-1.536,0-1.024-2.038-2.048-3.062c-1.526-1.526,1.024-18.896-3.062-16.346c-2.55,1.526-5.111-1.024-8.173-1.536     c0,0-7.661-0.512-7.661,0.512c0,0.512,2.038,1.024,2.55,1.024l-0.512,3.062c-1.536,0.502-4.599-0.512-5.623-2.048     c-1.024-1.536-6.637,1.024-7.661-0.512c1.024,1.024-6.637,5.111-7.149,5.623c-2.56,2.56-3.062,9.197-5.111,10.733     c-7.671,4.599-5.111,17.893-5.623,24.529c-1.024,5.623,4.599,6.647,8.685,4.599c1.536-1.024,3.062,1.536,4.086-0.512     s2.55-3.062,3.574-5.111c1.014-2.048,9.699-10.733,11.747-6.135c0.512,1.024-4.599,10.723-5.623,12.772     c-1.526,0-2.55,2.048-2.55,5.623c0,0-4.086,8.173-0.512,5.623c1.536-1.536,15.844-0.512,14.308,3.062     c-3.574,8.173-6.637,18.906,0.512,26.055c4.086,4.086,6.647-3.073,9.709-2.048c3.574,1.526,7.149,3.062,8.173,7.149     c1.536,0,6.647-16.858,9.709-12.259c1.014-1.526,10.723-7.661,11.747-7.149c-1.024-0.512-1.024,8.173-2.048,9.197     c-5.1,4.599,5.623,7.661,2.048,1.024c-2.048-3.574,0.512-4.599,3.574-5.623c1.536-0.512,0.512-3.062,1.536-3.574     c0,0.512,4.599,3.574,5.111,3.574c3.574,2.038-0.512,4.086,5.623,3.062c4.599-1.024,7.149,4.086,11.235,0.512     c3.062-2.56,6.647,0,9.197-1.024c-1.014,0.512-2.038,1.024-3.062,0.512c0.512,3.073,8.173,3.585,7.661,6.135     s2.038,2.55,3.574,3.062c3.585,1.536,3.585,4.097,6.135,6.647c2.048,2.038,7.671,6.637,11.246,4.086     c3.574-2.048,17.882,3.574,17.882,8.173c1.014-1.024,7.149,12.259,7.149,12.772c0,0,0,0.008,0,0.481     c0,0.01,0.013,0.028,0.017,0.041c0.034,0.021,0.108,0.088,0.095,0.215c0,0,0,0,0,0c-0.001,0.006,0,0.011,0,0.016     c-0.001,0.005,0.001,0.009,0,0.015c0.297,1.628,3.626,4.896,7.046,5.869c1.014,6.637,2.55,1.014,7.149,2.55     c2.048,0.512,7.661,2.038,9.197,3.574c1.024,1.024,0.512,5.111,1.024,5.111c0,0,3.062-1.536,2.55-1.024     c1.536-2.038,5.111,0.512,6.135,0.512c3.062,1.024,6.647,0,9.709,0.512c5.623,0.512,8.685,6.135,13.284,8.685     c5.623,3.062,7.661-1.024,9.709,6.637c1.536,5.111,1.024,10.221-2.55,13.796c-3.574,4.086-10.733,12.772-13.284,13.796     c-4.599,1.526-0.512,25.031-6.135,29.63c-5.623,4.599-4.599,14.81-12.772,12.259c-1.024-0.512-6.125,2.55-7.661,3.062     c-4.599,2.038-8.685,4.087-12.259,7.661c-4.087,3.585-0.512,10.221-4.599,14.82c0,0-8.173,10.723-9.709,12.772     c-0.512-0.512-0.512-1.024-1.024-1.024c-1.024,1.536-3.585,2.55-2.048,4.599c0-1.536,1.024-2.048,2.048-2.048     c1.024,1.024-2.55,5.111-3.062,5.111c-2.56,2.56-4.086,0-6.135,1.536c-2.55,1.536-7.149-2.038-9.197-2.55     c-0.512,2.55,6.637,6.647,7.661,9.197c3.073,8.173-14.308,7.149-16.858,7.661c0,1.526,2.56,5.1,2.048,6.637     c-1.536,3.574-7.149-1.536-8.685,0c-1.024,1.014,3.574,6.637,4.086,7.149c-0.512,1.024-1.536,6.135-2.048,6.135     c-2.048-0.512-4.599,2.55-2.048,4.599c1.536,1.024,3.574,1.024,5.111,2.048c3.574,2.048-3.073,4.097-1.536,6.647     c2.048,3.574-4.599,1.526,1.536,7.149c-7.425,0.44-2.192,3.841-0.502,4.824c-0.072-0.113,0.328-0.225,1.014-1.25     c-0.502-0.512-2.038,0.512-2.55-0.512c-1.526-4.086,6.135,1.024,6.135,0.512c2.55,1.526,6.637,1.526,8.173,3.062     c-1.024,0-3.574,1.024-4.599,1.024c-6.135-1.024-14.82-0.512-19.931-5.623C173.2,459.347,168.611,455.26,166.071,450.662z      M198.753,24.55c0.512-1.536,1.536-1.536,4.086-1.536C201.815,24.55,200.279,24.55,198.753,24.55z M182.919,34.249     c-0.512,0.512-1.024,1.024-2.048,1.536C181.383,34.761,182.397,34.249,182.919,34.249z M180.359,32.713     c-1.536,1.024-2.55,1.536-4.087,1.536C177.798,33.235,178.823,33.235,180.359,32.713z M190.535,75.167     c0.101,0.239,2.644,1.494,3.108,1.494c0.512,0.512,1.024,0,1.536,0C192.679,79.662,189.687,75.802,190.535,75.167z      M193.643,66.439c2.56,0,4.086,0.512,6.135,2.048C197.217,69,195.179,67.975,193.643,66.439z M173.872,218.224     c-0.055-0.011-0.099-0.02-0.16-0.031c0,0,1.024-3.073,2.55-3.062c2.56,1.526-1.526,3.062-2.55,3.062     C173.712,218.192,173.778,218.205,173.872,218.224z M174.666,218.379c-0.13-0.025-0.346-0.068-0.652-0.128     C174.222,218.292,174.489,218.345,174.666,218.379z M160.94,182.428C157.878,190.089,150.217,177.317,160.94,182.428     L160.94,182.428z M119.041,175.781c-2.55,0.512,1.536-2.038,1.536-2.55c-1.536-4.086-13.284-4.599-14.308-7.661     c0.512,0,1.024-0.512,1.024-1.024c-4.086-1.536-6.135,3.062-9.709,3.062c7.671-12.772,25.553,2.038,33.214,7.661     C126.712,175.269,122.626,175.269,119.041,175.781z M121.089,183.954c-0.512,2.038-6.135-0.512-6.647-1.536     c2.048-1.024,3.574-0.512,5.623,0.512C120.577,182.93,121.089,182.93,121.089,183.954z M103.207,167.608     c0,1.024-0.512,1.536-1.536,1.024C101.671,168.12,103.207,166.072,103.207,167.608z M121.384,159.339     c-0.937-2.474-1.685-2.646,0.217-5.015c0.512,2.56,0.512,3.574,0,5.111C121.601,159.06,121.331,158.965,121.384,159.339z      M135.899,181.394c-1.526-2.55,0-3.574-3.062-4.599c2.56-3.574,12.27,0.512,14.82,2.048c0,0.512-1.024,0-1.024,0.512     c0,0,6.135,5.111,2.048,3.574c-4.599-2.048-7.159,0.502-10.221,2.55c-2.56-3.574-6.647-1.014-9.709-2.55     C126.712,181.916,134.885,181.916,135.899,181.394z M190.068,432.78c0,2.038-4.086-1.024-1.024-1.536     C189.556,431.243,190.068,431.755,190.068,432.78z M308.116,504.288c-13.284,3.062-27.079,4.599-40.875,5.111     c-26.065,1.024-53.145-1.024-78.176-8.685c3.073,0.512,7.159,2.048,10.221,1.536c-3.073-2.038-7.159-1.526-9.709-3.574     c10.211,1.536,20.432,1.024,30.142,2.048c-1.024-1.536-9.709-3.574-9.709-4.086c1.024,0,8.173-0.512,8.173-0.512     c3.062-2.55-5.111-2.038-4.086-4.086c0-0.512,2.55,0.512,3.062-0.512c1.024-1.526,0-2.55,0.512-3.574     c0.512-0.502,12.772-3.062,14.308-2.55c-1.526,1.014-3.062,0-2.55,2.55c-1.536,0-5.111,0-5.623,1.536     c0-0.512,4.087,5.623,4.599,5.623c1.526,2.038,6.637,3.574,7.149,6.637c1.024,4.599,25.041,4.086,28.616,3.574     c9.197-1.024,17.37-4.086,26.055-5.623c5.1-1.014,10.723-2.55,15.834-3.062c2.55,0,10.723-3.062,12.772-2.55     c1.014,4.086,20.432-1.536,25.031-0.512C343.86,494.599,311.67,503.284,308.116,504.288z M338.247,59.29     c-1.536-1.536-0.512-5.111-4.086-6.135c1.014-0.512,2.038-0.512,2.55-1.024c-2.56-5.613,5.613,1.024,6.637,2.048     C347.946,58.778,340.787,61.84,338.247,59.29z M352.545,63.889c-1.024-3.062,2.55-3.062,2.56-3.564     c0-0.512-4.599-1.024-5.111-1.024c1.014,0-1.536-3.574-2.048-4.599c0.512,0,1.536,0,2.048-0.512     c-0.512-1.536-8.173-6.135-8.685-5.623c-3.073,1.536-6.135-6.125-6.647-7.149c4.599-0.512,7.661,4.588,12.26,6.637     c3.574,1.526,16.858,8.173,17.37,12.26C364.804,62.353,354.081,61.339,352.545,63.889z" fill="#000000" data-original="#000000" class=""></path>
			<path d="M182.909,463.433c1.024-0.512,1.024-0.512,0.512-1.024C182.397,462.921,181.895,462.921,182.909,463.433z" fill="#000000" data-original="#000000" class=""></path>
			<path d="M173.712,458.323c-0.512,0-0.512,0.512,0,1.024C174.736,458.835,174.736,458.835,173.712,458.323z" fill="#000000" data-original="#000000" class=""></path>
			<path d="M167.075,388.842C168.611,388.33,165.539,388.842,167.075,388.842L167.075,388.842z" fill="#000000" data-original="#000000" class=""></path>
			<path d="M189.556,465.482c0,0-0.215-0.113-0.502-0.287C189.095,465.246,189.218,465.308,189.556,465.482z" fill="#000000" data-original="#000000" class=""></path>
			<path d="M160.94,182.428C158.902,181.916,160.428,183.442,160.94,182.428L160.94,182.428z" fill="#000000" data-original="#000000" class=""></path>
			<path d="M372.775,35.376C373.422,35.592,373.084,35.479,372.775,35.376L372.775,35.376z" fill="#000000" data-original="#000000" class=""></path>
			<path d="M204.878,27.1c1.024-0.512,2.048,0,3.062-1.024C206.414,25.062,205.902,25.062,204.878,27.1z" fill="#000000" data-original="#000000" class=""></path>
			<path d="M171.162,54.18c-1.024,0.512-2.048,0.512-3.062,1.024C170.138,55.716,170.138,55.716,171.162,54.18z" fill="#000000" data-original="#000000" class=""></path>
			<path d="M201.303,29.661c0.512,0,1.024,0,1.536,0C202.84,29.661,203.352,27.612,201.303,29.661z" fill="#000000" data-original="#000000" class=""></path>
			<path d="M177.798,28.124c1.024-0.512,1.024-1.024,0-1.024C176.774,27.612,176.774,27.612,177.798,28.124z" fill="#000000" data-original="#000000" class=""></path>
			<path d="M181.383,27.612c-1.024,0-1.536,0-2.048,0.512C177.297,29.149,181.895,28.636,181.383,27.612z" fill="#000000" data-original="#000000" class=""></path>
			<path d="M201.826,54.169c-0.522-0.502-1.034-1.014-2.048-1.014c0.453,0.925-1.157,1.012-0.343,0.266     c-1.086,0.683-2.823,0.505-3.744,2.797C196.715,54.681,201.826,54.681,201.826,54.169z" fill="#000000" data-original="#000000" class=""></path>
			<path d="M170.138,64.401c0.082-0.082,0.297-0.215,0.481-0.338c-0.195,0.502-2.007,3.001,3.093-1.71c0,0-2.1,1.065-3.093,1.71     C170.68,63.91,170.619,63.92,170.138,64.401z" fill="#000000" data-original="#000000" class=""></path>
			<path d="M185.982,62.865C187.508,62.865,184.445,62.353,185.982,62.865L185.982,62.865z" fill="#000000" data-original="#000000" class=""></path>
			<path d="M179.847,49.069c-0.512-0.512-0.512-1.024-1.024-0.512C179.335,49.581,179.335,49.581,179.847,49.069z" fill="#000000" data-original="#000000" class=""></path>
			<path d="M135.397,66.951c1.024,1.024,2.55-1.536,2.55-2.048C137.435,63.889,134.885,66.439,135.397,66.951z" fill="#000000" data-original="#000000" class=""></path>
			<path d="M141.532,33.235c-0.512-0.512-3.574,1.536-4.599,2.048c-0.512,0.512-1.024,0.512-1.536,1.536     C135.909,36.297,143.058,34.761,141.532,33.235z" fill="#000000" data-original="#000000" class=""></path>
			<path d="M126.21,81.249c-0.512,0.512-6.647,9.197-5.623,10.221c0.512,0.512,12.26-11.747,13.796-12.772     c4.086-2.55,0.512,5.111-1.024,6.135c1.014-0.512,2.038-1.536,2.55-1.024c0.512,1.014,0,2.038-1.024,3.062     c2.038-0.512,6.637-4.599,6.637-7.149c3.073,4.097,4.599-1.014,1.536-2.55C138.459,75.636,130.286,78.197,126.21,81.249z      M142.556,78.709c-1.024,0.512-1.536,0.512-1.536-0.512C141.02,78.197,143.058,77.685,142.556,78.709z" fill="#000000" data-original="#000000" class=""></path>
			<path d="M130.76,91.618c0.011-0.045,0.018-0.088,0.038-0.138C130.762,91.553,130.754,91.594,130.76,91.618z" fill="#000000" data-original="#000000" class=""></path>
			<path d="M136.421,39.872c0-1.305-4.478,1.115-6.097,1.844C132.065,41.17,136.421,40.323,136.421,39.872z" fill="#000000" data-original="#000000" class=""></path>
			<path d="M130.324,41.716c-0.236,0.074-0.427,0.143-0.55,0.204C129.849,41.92,130.05,41.839,130.324,41.716z" fill="#000000" data-original="#000000" class=""></path>
			<path d="M130.76,91.618c-0.541,2.249,10.26-1.674,10.26-1.674c-2.048,0.512-0.512,0,0,0c1.024-0.512,2.048-1.024,3.062-2.048     c-2.048,0-9.709,0.512-10.733,1.024C134.301,88.444,130.843,91.944,130.76,91.618z" fill="#000000" data-original="#000000" class=""></path>
			<path d="M142.556,86.37c2.038,2.038,16.346-1.024,7.149-2.048C147.155,83.809,144.594,84.321,142.556,86.37z" fill="#000000" data-original="#000000" class=""></path>
			<path d="M148.169,27.612c2.55-0.512,6.135-1.536,8.173-3.574C153.279,24.55,150.719,26.076,148.169,27.612z" fill="#000000" data-original="#000000" class=""></path>
			<path d="M148.681,77.173c0-0.512-0.512-0.512-1.024,0C148.169,77.685,148.169,77.685,148.681,77.173z" fill="#000000" data-original="#000000" class=""></path>
		</g>
	</g>
</g>
<g xmlns="http://www.w3.org/2000/svg">
</g>
<g xmlns="http://www.w3.org/2000/svg">
</g>
<g xmlns="http://www.w3.org/2000/svg">
</g>
<g xmlns="http://www.w3.org/2000/svg">
</g>
<g xmlns="http://www.w3.org/2000/svg">
</g>
<g xmlns="http://www.w3.org/2000/svg">
</g>
<g xmlns="http://www.w3.org/2000/svg">
</g>
<g xmlns="http://www.w3.org/2000/svg">
</g>
<g xmlns="http://www.w3.org/2000/svg">
</g>
<g xmlns="http://www.w3.org/2000/svg">
</g>
<g xmlns="http://www.w3.org/2000/svg">
</g>
<g xmlns="http://www.w3.org/2000/svg">
</g>
<g xmlns="http://www.w3.org/2000/svg">
</g>
<g xmlns="http://www.w3.org/2000/svg">
</g>
<g xmlns="http://www.w3.org/2000/svg">
</g>
</g></svg>